<svg width="629" height="707" viewBox="0 0 629 707" fill="none" xmlns="http://www.w3.org/2000/svg">
<path d="M75.2078 88.6196C75.1877 89.1208 75.1765 89.6223 75.1743 90.1239C75.1743 110.895 90.1633 127.734 108.653 127.734C127.142 127.734 142.131 110.895 142.131 90.1239C142.131 89.6194 142.115 89.1195 142.098 88.6196H75.2078Z" fill="#F4F4F4"/>
<path d="M110.303 88.6196C110.288 88.9838 110.28 89.3484 110.278 89.7129C110.278 104.803 121.167 117.036 134.599 117.036C148.032 117.036 158.92 104.803 158.92 89.7129C158.92 89.3465 158.908 88.983 158.896 88.6196H110.303Z" fill="#E7EFFE"/>
<path d="M427.741 253.529C428.849 257.259 427.562 261.338 425.927 264.815C421.406 274.427 414.032 282.309 405.262 286.904C400.357 289.474 395.081 291.023 390.084 293.353C375.501 300.153 363.588 313.861 357.886 330.401C359.593 318.899 354.187 307.553 347.697 298.452C341.208 289.35 333.365 281.253 328.744 270.811C324.774 261.839 324.684 248.543 332.748 244.262C338.699 241.103 346.127 244.63 352.173 241.708C354.311 240.675 356.286 238.48 356.162 235.87C355.848 229.196 344.143 229.673 343.847 222.999C343.507 215.368 361.402 217.586 359.142 210.38C358.18 207.312 354.382 206.445 353.039 203.563C351.695 200.681 351.792 196.673 354.045 194.63C357.028 191.928 361.493 194.053 365.236 193.132C369.496 192.084 372.174 187.169 373.038 182.368C373.902 177.566 373.456 172.58 374.083 167.731C375.624 155.798 384.274 145.442 394.776 142.954C405.279 140.467 416.914 146.02 422.612 156.238C424.949 160.429 426.244 166.112 423.734 170.175C421.609 173.613 416.975 175.785 417.349 179.949C417.859 185.631 427.155 186.131 427.324 191.839C427.522 198.501 415.314 198.513 415.66 205.166C415.815 208.136 418.594 209.877 420.281 212.171C423.446 216.474 422.19 223.888 417.841 226.586C416.113 227.657 414.024 228.075 412.608 229.62C409.084 233.463 412.53 240.258 416.69 243.189C420.85 246.123 426.187 248.296 427.741 253.529Z" fill="url(#paint0_linear_263_1155)"/>
<path d="M396.994 254.017C399.497 252.488 402.142 251.073 404.067 248.713C408.159 243.701 407.883 236.104 408.205 229.313C408.527 222.523 410.662 214.51 416.492 212.681C421.359 211.153 427.533 214.502 431.139 210.525C432.478 209.049 433.022 206.911 433.984 205.1C438.12 197.317 449.122 197.918 455.132 203.968C461.142 210.016 463.438 219.329 465.454 228.106C466.189 231.306 466.29 235.84 463.449 236.696C460.749 237.509 458.035 233.757 455.441 234.926C453.359 235.863 453.227 239.17 453.971 241.545C454.716 243.921 455.997 246.32 455.51 248.778C454.579 253.47 448.698 253.732 444.571 252.459C440.444 251.187 435.061 249.965 432.7 253.974C435.313 263.441 437.577 274.928 431.679 282.3C424.857 290.826 412.358 289.94 402.197 291.009C383.318 292.997 369.984 309.174 359.408 326.856C358.834 297.349 373.915 268.122 396.994 254.017Z" fill="url(#paint1_linear_263_1155)"/>
<path d="M388.186 216.967L384.979 207.134C383.823 207.071 382.684 207.212 381.58 207.629L385.048 218.26C385.141 218.546 385.129 218.862 385.015 219.139C384.901 219.416 384.694 219.63 384.439 219.736C384.184 219.84 383.903 219.827 383.656 219.699C383.41 219.57 383.219 219.338 383.125 219.052L379.722 208.619C378.691 209.345 377.805 210.301 377.079 211.434L379.95 220.236C380.043 220.523 380.031 220.839 379.917 221.116C379.803 221.392 379.596 221.607 379.341 221.712C379.086 221.817 378.805 221.803 378.558 221.675C378.312 221.547 378.121 221.314 378.027 221.028L375.772 214.115C374.476 217.716 374.401 222.277 375.862 226.757C375.896 226.862 375.931 226.966 375.968 227.068C375.213 227.554 374.483 228.086 373.78 228.662C371.807 230.29 369.262 233.053 368.35 236.97L369.34 237.26C370.177 233.67 372.546 231.107 374.386 229.588C375.023 229.066 375.684 228.582 376.366 228.138C377.898 231.952 380.35 234.918 383.093 236.557L380.95 229.988C380.857 229.702 380.869 229.385 380.983 229.109C381.097 228.832 381.304 228.618 381.559 228.512C381.814 228.408 382.095 228.421 382.342 228.549C382.588 228.677 382.779 228.91 382.873 229.196L385.634 237.661C386.838 237.996 388.061 238.071 389.256 237.847L386.048 228.011C385.955 227.724 385.966 227.408 386.081 227.131C386.195 226.855 386.402 226.64 386.656 226.535C386.911 226.43 387.193 226.444 387.439 226.572C387.685 226.7 387.876 226.933 387.97 227.219L391.223 237.19C392.272 236.668 393.207 235.889 394.046 234.929L391.109 225.926C391.016 225.64 391.028 225.323 391.142 225.047C391.256 224.77 391.463 224.556 391.717 224.45C391.972 224.346 392.254 224.359 392.5 224.487C392.746 224.615 392.937 224.848 393.031 225.134L395.555 232.872C396.371 231.57 397.082 230.107 397.719 228.592L396.135 223.734C396.042 223.448 396.054 223.131 396.168 222.855C396.282 222.578 396.489 222.364 396.744 222.258C396.999 222.154 397.28 222.167 397.526 222.295C397.773 222.423 397.964 222.656 398.058 222.942L398.901 225.529C400.46 221.179 401.565 217.024 402.868 215.634C400.663 215.112 397.521 212.74 394.042 210.632L395.134 213.981C395.227 214.267 395.215 214.583 395.101 214.86C394.987 215.137 394.78 215.351 394.525 215.457C394.27 215.561 393.989 215.548 393.742 215.42C393.496 215.291 393.305 215.059 393.211 214.773L391.371 209.13C390.023 208.441 388.65 207.863 387.28 207.506L390.107 216.173C390.2 216.459 390.188 216.775 390.074 217.052C389.96 217.329 389.753 217.543 389.498 217.649C389.372 217.701 389.238 217.725 389.104 217.719C388.97 217.713 388.838 217.677 388.716 217.614C388.594 217.551 388.485 217.461 388.394 217.35C388.303 217.239 388.232 217.109 388.186 216.967Z" fill="#E0EBFE"/>
<path d="M357.238 483.135H239.526C227.465 483.135 217.688 472.15 217.688 458.601V129.549C217.688 115.999 227.466 105.016 239.526 105.016H357.238C369.3 105.016 379.077 116 379.077 129.549V458.602C379.077 472.152 369.3 483.135 357.238 483.135Z" fill="#C1D7FD"/>
<path d="M275.195 133.052C277.306 133.052 279.017 131.13 279.017 128.76C279.017 126.389 277.306 124.467 275.195 124.467C273.085 124.467 271.374 126.389 271.374 128.76C271.374 131.13 273.085 133.052 275.195 133.052Z" fill="#A1C3FC"/>
<path d="M357.239 105.015H334.642C333.491 105.82 332.353 106.647 331.228 107.495C301.622 129.763 276.158 161.29 266.251 199.738C262.257 215.235 260.873 231.415 257.837 247.185C250.885 283.291 235.397 316.622 217.688 347.766V458.602C217.688 472.152 227.465 483.135 239.526 483.135H357.239C369.3 483.135 379.077 472.151 379.077 458.602V129.549C379.077 115.999 369.3 105.015 357.239 105.015Z" fill="#A1C3FC"/>
<path d="M299.561 476.286C307.052 476.286 313.123 469.465 313.123 461.05C313.123 452.636 307.052 445.814 299.561 445.814C292.071 445.814 286 452.636 286 461.05C286 469.465 292.071 476.286 299.561 476.286Z" fill="url(#paint2_linear_263_1155)"/>
<path d="M313.341 128.932L286.157 132.742L285.573 127.491L312.758 123.681L313.341 128.932Z" fill="#A1C3FC"/>
<path d="M224.08 147.82H372.686V440.706H224.08V147.82Z" fill="white"/>
<path d="M297.963 470.901C303.688 470.901 308.33 465.687 308.33 459.255C308.33 452.823 303.688 447.609 297.963 447.609C292.238 447.609 287.596 452.823 287.596 459.255C287.596 465.687 292.238 470.901 297.963 470.901Z" fill="#C1D7FD"/>
<path d="M309.435 128.504H287.097C286.885 128.504 286.682 128.41 286.532 128.241C286.382 128.073 286.298 127.844 286.298 127.606C286.298 127.368 286.382 127.14 286.532 126.971C286.682 126.803 286.885 126.708 287.097 126.708H309.435C309.646 126.708 309.85 126.803 310 126.971C310.149 127.14 310.234 127.368 310.234 127.606C310.234 127.844 310.149 128.073 310 128.241C309.85 128.41 309.646 128.504 309.435 128.504Z" fill="#428DFC"/>
<path d="M275.29 131.182C276.737 131.182 277.911 129.864 277.911 128.237C277.911 126.611 276.737 125.292 275.29 125.292C273.842 125.292 272.668 126.611 272.668 128.237C272.668 129.864 273.842 131.182 275.29 131.182Z" fill="#428DFC"/>
<path d="M215.338 148.665H218.022V161.669H215.338V148.665ZM215.338 177.314H218.022V200.686H215.338V177.314ZM379.124 177.314H381.809V200.686H379.124V177.314ZM215.338 207.848H218.022V231.22H215.338V207.848Z" fill="#D62929"/>
<path d="M271.989 130.788L268.286 126.295L272.285 122.134L275.989 126.627L271.989 130.788Z" fill="white"/>
<path d="M269.453 128.74L266.835 125.563L269.663 122.622L272.281 125.799L269.453 128.74Z" fill="#A1C3FC"/>
<path d="M458.243 50.3359C458.221 50.881 458.209 51.4265 458.207 51.9721C458.207 74.5584 474.505 92.8687 494.61 92.8687C514.715 92.8687 531.013 74.5584 531.013 51.9721C531.013 51.4239 530.996 50.8795 530.976 50.3359H458.243Z" fill="#D3E3FE"/>
<path d="M496.405 50.3359C496.391 50.7308 496.378 51.1256 496.378 51.5243C496.378 67.9325 508.219 81.2348 522.824 81.2348C537.43 81.2348 549.271 67.9325 549.271 51.5243C549.271 51.1256 549.258 50.7308 549.243 50.3359H496.405Z" fill="#F6F9FF"/>
<path d="M525.396 50.3359C525.385 50.6526 525.374 50.9685 525.374 51.2882C525.374 64.4402 534.865 75.1027 546.572 75.1027C558.279 75.1027 567.77 64.4402 567.77 51.2882C567.77 50.9685 567.76 50.6518 567.748 50.3359H525.396Z" fill="#D3E3FE"/>
<path d="M125.58 435.616C125.365 440.101 127.882 444.155 130.62 447.427C138.188 456.474 148.434 462.645 159.33 464.72C165.423 465.881 171.65 465.792 177.781 466.658C195.672 469.185 212.484 480.226 223.222 496.5C218.242 484.415 221.136 470.083 225.829 457.854C230.523 445.624 236.973 434.039 239.247 420.969C241.202 409.738 237.716 395.068 227.681 393.097C220.277 391.643 213.048 398.055 205.603 396.894C202.971 396.484 200.205 394.739 199.636 391.823C198.184 384.368 211.201 380.911 209.728 373.46C208.044 364.942 188.938 373.472 189.484 364.768C189.717 361.062 193.664 358.816 194.367 355.186C195.07 351.557 193.884 347.174 190.851 345.693C186.839 343.732 182.494 347.591 178.125 347.85C173.151 348.145 168.877 343.646 166.632 338.651C164.387 333.657 163.534 328.015 161.538 322.889C156.623 310.273 144.307 301.812 132.072 302.647C119.837 303.482 108.522 313.553 105.002 326.744C103.559 332.155 103.665 338.853 107.524 342.473C110.79 345.536 116.479 346.35 117.19 351.063C118.159 357.494 108.058 361.207 109.41 367.55C110.988 374.952 124.435 370.812 125.846 378.257C126.477 381.58 123.885 384.442 122.646 387.542C120.321 393.358 123.702 401.095 129.219 402.586C131.411 403.179 133.824 402.928 135.8 404.147C140.716 407.179 138.753 415.835 134.962 420.478C131.171 425.117 125.881 429.325 125.58 435.616Z" fill="url(#paint3_linear_263_1155)"/>
<path d="M159.569 425.693C156.4 424.861 153.106 424.204 150.349 422.26C144.493 418.133 142.749 409.674 140.563 402.306C138.378 394.937 133.867 386.841 126.955 386.81C121.184 386.784 115.288 392.572 110.244 389.42C108.371 388.249 107.197 386.08 105.65 384.414C98.9985 377.25 87.0451 381.657 82.0583 390.361C77.0715 399.067 77.0531 410.102 77.1992 420.454C77.2524 424.227 78.3641 429.255 81.7225 429.23C84.9151 429.208 86.8915 424.151 90.0636 424.556C92.6072 424.88 93.6452 428.477 93.4657 431.346C93.2862 434.216 92.5212 437.293 93.7216 439.833C96.0113 444.684 102.559 442.972 106.76 440.166C110.961 437.362 116.558 434.184 120.24 437.795C119.916 449.109 120.518 462.529 129.001 468.638C138.811 475.705 152.336 470.477 163.812 468.198C185.137 463.964 204.181 477.241 220.593 493.112C213.268 460.423 188.784 433.372 159.569 425.693Z" fill="url(#paint4_linear_263_1155)"/>
<path d="M222.968 497.994C215.76 476.714 209.913 454.884 205.473 432.669" stroke="#428DFC" stroke-width="3.25417" stroke-miterlimit="10" stroke-linecap="round"/>
<path d="M195.283 432.934C195.76 435.27 200.655 436.002 206.216 434.57C211.778 433.137 215.9 430.082 215.423 427.746C214.946 425.41 210.051 424.677 204.49 426.11C198.928 427.543 194.807 430.598 195.283 432.934Z" fill="#23286B"/>
<path d="M204.941 429.973C202.491 417.384 200.49 404.689 198.944 391.919" stroke="#428DFC" stroke-width="3.25417" stroke-miterlimit="10" stroke-linecap="round"/>
<path d="M186.824 393.446C187.64 396.186 193.588 396.419 200.108 393.967C206.628 391.515 211.252 387.307 210.436 384.568C209.62 381.829 203.673 381.595 197.152 384.047C190.632 386.499 186.008 390.707 186.824 393.446Z" fill="#23286B"/>
<path d="M198.547 388.557C197.335 377.994 196.436 367.389 195.85 356.759" stroke="#428DFC" stroke-width="3.25417" stroke-miterlimit="10" stroke-linecap="round"/>
<path d="M184.106 353.404C184.134 356.292 189.729 358.566 196.603 358.484C203.478 358.403 209.029 355.995 209.001 353.107C208.974 350.219 203.379 347.944 196.505 348.026C189.63 348.108 184.079 350.516 184.106 353.404Z" fill="#23286B"/>
<path d="M195.626 352.361C195.247 344.271 195.05 336.172 195.037 328.071" stroke="#428DFC" stroke-width="3.25417" stroke-miterlimit="10" stroke-linecap="round"/>
<path d="M178.471 324.008C178.508 327.88 186.009 330.93 195.226 330.82C204.443 330.71 211.885 327.482 211.849 323.61C211.812 319.738 204.311 316.689 195.094 316.798C185.877 316.908 178.435 320.136 178.471 324.008Z" fill="#23286B"/>
<path d="M195.055 322.577C195.103 317.178 195.23 311.78 195.441 306.385" stroke="#428DFC" stroke-width="3.25417" stroke-miterlimit="10" stroke-linecap="round"/>
<path d="M168.493 75.1235H155.126C155.903 74.8482 156.68 74.6182 157.497 74.481H166.081C166.899 74.6634 167.676 74.8934 168.493 75.1235ZM171.518 76.4552H152.102C151.694 76.6392 151.326 76.8685 150.959 77.0977H172.622C172.267 76.856 171.898 76.6413 171.518 76.4552ZM174.339 78.4287H149.036C148.75 78.6587 148.504 78.842 148.219 79.0712H174.951C174.757 78.8451 174.552 78.6307 174.339 78.4287ZM175.851 80.3577H146.789C146.584 80.5877 146.339 80.771 146.134 81.0002H176.137C176.055 80.817 175.974 80.5877 175.851 80.3577ZM176.669 82.3328H144.99C144.827 82.5628 144.664 82.746 144.459 82.9753H176.832C176.791 82.746 176.709 82.562 176.669 82.3328ZM177.118 84.307H143.518C143.355 84.537 143.232 84.7203 143.11 84.9495H177.199C177.159 84.721 177.118 84.491 177.118 84.307ZM177.322 86.236H142.333C142.211 86.466 142.088 86.6493 142.006 86.8785H177.403C177.363 86.6945 177.363 86.466 177.322 86.236ZM177.404 88.2103H141.352C141.271 88.4403 141.148 88.6235 141.066 88.8528H177.404V88.2103ZM177.077 90.4146C177.118 90.3233 177.118 90.2773 177.158 90.1846H140.575C140.494 90.4146 140.411 90.5978 140.37 90.8271H176.831C176.914 90.6898 176.995 90.5526 177.077 90.4146ZM174.706 92.3428C174.829 92.2516 174.951 92.2056 175.074 92.1588H140.003C139.962 92.3888 139.922 92.5721 139.839 92.8013H174.01C174.216 92.6188 174.461 92.4816 174.706 92.3428ZM172.458 94.0878H139.595C139.554 94.3178 139.514 94.5011 139.514 94.7303H171.886C172.056 94.494 172.248 94.2786 172.458 94.0878ZM170.864 96.0169H139.309C139.309 96.2469 139.268 96.4301 139.268 96.6594H170.456C170.578 96.4761 170.7 96.2469 170.864 96.0169ZM169.761 97.9919H139.227V98.6344H169.474C169.556 98.4511 169.679 98.2211 169.761 97.9919ZM169.025 99.9661H139.309C139.309 100.196 139.35 100.379 139.39 100.609H168.861C168.902 100.379 168.984 100.15 169.025 99.9661ZM168.575 101.895H139.595C139.636 102.125 139.676 102.354 139.717 102.538H168.493C168.535 102.354 168.575 102.124 168.575 101.895ZM168.411 103.869H140.085C140.166 104.099 140.207 104.329 140.29 104.512H168.412L168.411 103.869ZM141.148 106.487H168.616C168.575 106.257 168.535 106.074 168.535 105.844H140.862C140.943 106.028 141.066 106.257 141.148 106.487ZM142.292 108.415H169.065C169.024 108.185 168.943 108.002 168.901 107.773H141.883C142.006 108.002 142.129 108.232 142.292 108.415ZM143.845 110.389H169.351C169.351 110.159 169.351 109.976 169.31 109.747H143.231C143.477 109.977 143.682 110.206 143.845 110.389ZM146.012 112.227C146.093 112.273 146.134 112.318 146.217 112.364H168.821C168.943 112.18 169.066 111.951 169.148 111.722H145.317C145.562 111.86 145.767 112.088 146.012 112.227ZM151.162 114.294H165.754C166.326 114.156 166.858 113.926 167.389 113.651H148.913C149.65 113.926 150.385 114.155 151.162 114.294Z" fill="#C8DCF8"/>
<path d="M512.587 451.813H525.954C525.177 452.089 524.401 452.319 523.584 452.456H515C514.182 452.272 513.406 452.042 512.587 451.813ZM509.563 450.482H528.979C529.388 450.298 529.755 450.068 530.123 449.839H508.459C508.814 450.08 509.183 450.295 509.563 450.482ZM506.742 448.507H532.044C532.33 448.277 532.576 448.093 532.862 447.864H506.13C506.334 448.094 506.539 448.323 506.742 448.507ZM505.23 446.578H534.292C534.496 446.348 534.741 446.164 534.946 445.935H504.944C505.026 446.119 505.107 446.348 505.23 446.578ZM504.413 444.603H536.091C536.255 444.373 536.418 444.19 536.623 443.961H504.25C504.291 444.19 504.372 444.374 504.413 444.603ZM503.964 442.628H537.563C537.727 442.398 537.849 442.215 537.972 441.986H503.882C503.922 442.216 503.964 442.445 503.964 442.628ZM503.759 440.701H538.748C538.87 440.471 538.993 440.288 539.075 440.058H503.678C503.718 440.241 503.718 440.471 503.759 440.701ZM503.677 438.726H539.729C539.81 438.496 539.934 438.313 540.015 438.083H503.677V438.726ZM504.005 436.522C503.964 436.613 503.964 436.659 503.923 436.752H540.507C540.588 436.522 540.671 436.338 540.712 436.109H504.25C504.167 436.246 504.086 436.384 504.005 436.522ZM506.375 434.592C506.253 434.684 506.13 434.73 506.007 434.777H541.078C541.119 434.547 541.159 434.363 541.242 434.134H507.071C506.865 434.317 506.62 434.455 506.375 434.592ZM508.623 432.847H541.486C541.527 432.617 541.567 432.434 541.567 432.205H509.195C509.032 432.435 508.828 432.664 508.623 432.847ZM510.217 430.918H541.773C541.773 430.688 541.814 430.505 541.814 430.276H510.626C510.503 430.46 510.381 430.69 510.217 430.918ZM511.321 428.945H541.854V428.302H511.607C511.525 428.486 511.403 428.715 511.321 428.945ZM512.056 426.971H541.773C541.773 426.741 541.732 426.557 541.692 426.328H512.221C512.179 426.557 512.098 426.787 512.056 426.971ZM512.506 425.042H541.487C541.446 424.812 541.406 424.582 541.365 424.399H512.589C512.538 424.609 512.51 424.825 512.506 425.042ZM512.67 423.067H540.996C540.915 422.837 540.873 422.607 540.791 422.424H512.669L512.67 423.067ZM539.934 420.45H512.466C512.507 420.68 512.547 420.863 512.547 421.092H540.22C540.138 420.908 540.015 420.679 539.934 420.45ZM538.789 418.521H512.016C512.057 418.751 512.138 418.934 512.18 419.163H539.198C539.075 418.933 538.952 418.705 538.789 418.521ZM537.235 416.546H511.729C511.729 416.776 511.729 416.959 511.77 417.188H537.849C537.604 416.96 537.399 416.73 537.235 416.546ZM535.069 414.71C534.988 414.664 534.946 414.618 534.864 414.572H512.26C512.128 414.77 512.018 414.986 511.933 415.215H535.764C535.519 415.077 535.315 414.847 535.069 414.71ZM529.919 412.643H515.327C514.755 412.781 514.224 413.01 513.693 413.285H532.169C531.432 413.011 530.696 412.781 529.919 412.643Z" fill="#EEEEEE"/>
<path d="M483.877 396.533C486.113 396.533 487.926 394.496 487.926 391.984C487.926 389.472 486.113 387.435 483.877 387.435C481.64 387.435 479.828 389.472 479.828 391.984C479.828 394.496 481.64 396.533 483.877 396.533Z" fill="#A1C3FC"/>
<path d="M55.9856 159.97C58.2218 159.97 60.0347 157.934 60.0347 155.421C60.0347 152.909 58.2218 150.873 55.9856 150.873C53.7494 150.873 51.9365 152.909 51.9365 155.421C51.9365 157.934 53.7494 159.97 55.9856 159.97Z" fill="#A1C3FC"/>
<g clip-path="url(#clip0_263_1155)">
<path d="M259.148 175.807H487.265V330.404H259.148V175.807Z" fill="#EEEEEE"/>
<path d="M484.225 202.737H261.098V186.953C261.098 181.43 265.086 176.953 270.005 176.953H484.225V202.737Z" fill="url(#paint5_linear_263_1155)"/>
<path d="M287.412 205.543H263.121V189.682C263.121 184.202 267.078 179.759 271.959 179.759H287.412V205.543Z" fill="#78A9EF"/>
<path d="M269.006 185.624H281.525V199.678H269.006V185.624Z" fill="#89B3F4"/>
<path d="M262.857 216.409H304.238V227.34H262.857V216.409Z" fill="url(#paint6_linear_263_1155)"/>
<path d="M300.297 216.409H341.678V227.34H300.297V216.409Z" fill="#F2F2F2"/>
<path d="M337.737 216.409H379.118V227.34H337.737V216.409Z" fill="url(#paint7_linear_263_1155)"/>
<path d="M375.177 216.409H416.558V227.34H375.177V216.409Z" fill="#F2F2F2"/>
<path d="M412.617 216.409H453.998V227.34H412.617V216.409Z" fill="url(#paint8_linear_263_1155)"/>
<path d="M442.407 216.409H483.788V227.34H442.407V216.409Z" fill="#F2F2F2"/>
<path d="M465.01 211.203H303.195C300.9 211.203 299.022 209.095 299.022 206.518V204.436C299.022 201.859 300.9 199.751 303.195 199.751H465.01C467.305 199.751 469.183 201.859 469.183 204.436V206.518C469.183 209.095 467.305 211.203 465.01 211.203Z" fill="#F7F7F7"/>
<path d="M310.933 209.177C311.509 209.177 311.976 208.652 311.976 208.006C311.976 207.359 311.509 206.834 310.933 206.834C310.356 206.834 309.889 207.359 309.889 208.006C309.889 208.652 310.356 209.177 310.933 209.177Z" fill="#23286B"/>
<path d="M316.496 209.177C317.072 209.177 317.539 208.652 317.539 208.006C317.539 207.359 317.072 206.834 316.496 206.834C315.92 206.834 315.453 207.359 315.453 208.006C315.453 208.652 315.92 209.177 316.496 209.177Z" fill="#23286B"/>
<path d="M322.059 209.177C322.635 209.177 323.102 208.652 323.102 208.006C323.102 207.359 322.635 206.834 322.059 206.834C321.483 206.834 321.016 207.359 321.016 208.006C321.016 208.652 321.483 209.177 322.059 209.177Z" fill="#23286B"/>
</g>
<g clip-path="url(#clip1_263_1155)">
<path d="M472.281 407.012C470.465 406.302 465.57 410.648 463.517 411.535C460.596 412.865 456.885 414.107 454.99 416.945C452.542 420.67 454.121 424.218 455.463 428.121C456.648 431.757 456.569 433.087 457.674 436.724C458.385 438.941 459.727 441.07 461.859 441.07C463.359 441.07 472.676 441.602 474.018 441.159C476.308 440.272 478.756 434.418 480.256 432.112C483.177 427.5 477.966 427.411 475.282 429.185C473.544 430.338 471.965 432.821 470.149 433.531C468.412 434.241 467.386 433.62 465.491 433.531C465.017 431.402 464.543 428.564 464.78 426.347C465.017 424.041 467.465 422.533 469.439 421.912C473.544 420.67 477.887 420.227 481.993 419.606C481.203 417.3 477.808 414.817 476.387 412.865C474.808 410.737 473.466 408.342 471.807 406.213C472.044 406.923 472.044 406.479 472.281 407.012Z" fill="#F2A19C"/>
<path d="M460.832 423.154C461.938 426.702 465.57 426.879 468.175 428.298C470.86 429.806 475.203 430.515 475.834 433.531C477.019 439.119 471.334 436.724 469.281 435.837C466.517 434.684 464.07 432.821 461.148 432.378C458.701 432.023 456.884 430.338 456.884 427.411C456.884 425.282 458.622 423.42 460.832 423.154Z" fill="url(#paint9_linear_263_1155)"/>
<path d="M496.916 634.333C498.495 641.606 502.048 656.152 499.758 656.861C494.389 657.039 448.831 657.039 438.882 657.039C437.935 655.353 438.172 653.846 438.645 652.249C440.067 647.726 444.883 644.089 448.91 642.493C452.937 640.896 455.542 640.63 459.411 638.768C463.912 636.728 466.675 634.51 471.649 633.712C473.623 633.357 478.598 633.446 480.651 633.623C486.099 633.801 491.468 634.067 496.916 634.333Z" fill="url(#paint10_linear_263_1155)"/>
<path d="M354.556 309.627C355.108 309.627 355.661 309.449 356.056 309.006C357.082 308.03 357.161 306.345 356.293 305.281L326.289 265.635C325.42 264.482 323.92 264.393 322.973 265.368C321.946 266.344 321.867 268.029 322.736 269.094L352.74 308.74C353.213 309.36 353.924 309.627 354.556 309.627Z" fill="#23286B"/>
<path d="M363.557 307.586C361.899 306.079 358.346 305.014 357.24 302.886C356.135 300.668 356.767 298.362 355.898 296.322C355.029 294.282 345.239 285.945 344.212 287.098C342.949 288.517 344.844 292.775 345.634 294.016C347.213 296.411 349.739 297.83 350.608 300.491C351.555 303.329 350.608 304.837 352.74 307.232C354.951 309.804 358.425 312.731 361.188 314.682C361.583 314.948 362.136 315.746 362.451 316.101C362.925 314.238 364.741 308.651 363.557 307.586Z" fill="#FFBEB6"/>
<path d="M345.791 297.032C344.212 295.968 338.764 290.912 336.79 291.356C333.395 292.154 336.08 297.742 336.475 299.515C337.659 304.571 335.922 309.094 337.659 313.972C339.791 320.004 343.107 318.496 348.239 319.649C350.924 320.27 355.108 322.044 357.477 323.729C360.162 325.68 362.294 328.075 365.294 329.582C364.504 324.083 366.794 319.117 368.61 313.972C366.557 312.465 363.952 311.755 361.741 310.513C360.32 309.715 358.74 308.207 357.319 307.853C357.319 308.296 350.608 300.314 345.791 297.032Z" fill="#FFBEB6"/>
<path d="M488.073 315.303C486.809 322.309 479.703 327.986 477.887 334.815C473.939 335.259 462.49 334.106 461.069 329.76C460.201 327.188 461.464 322.93 462.017 320.624C463.122 315.569 466.359 310.602 467.149 305.812C469.597 307.586 473.623 307.852 476.466 308.739C478.124 309.272 478.598 309.892 480.098 310.868C482.151 312.287 485.941 314.593 488.073 315.303Z" fill="#F2A19C"/>
<path d="M513.339 292.331C510.102 285.945 496.837 262.885 486.493 270.956C477.966 277.608 461.78 285.679 463.201 287.808C466.912 292.952 466.517 292.952 463.912 298.362C461.78 302.708 459.806 306.256 462.096 310.779C465.412 317.165 475.676 321.156 481.835 322.575C497.626 326.301 512.786 313.706 513.418 295.347C513.102 294.726 514.128 292.065 513.339 292.331Z" fill="url(#paint11_linear_263_1155)"/>
<path d="M465.254 295.169C468.254 296.943 472.913 298.628 472.518 304.127C472.202 308.739 467.544 311.844 464.306 311.4C451.2 309.272 458.069 301.733 465.254 295.169ZM506.154 272.464C500.785 259.958 476.861 262.441 472.044 275.391C480.256 285.679 487.441 292.065 497.942 303.418C499.837 299.072 507.338 273.173 506.154 272.464ZM526.051 325.591C526.288 325.591 526.446 325.414 526.446 325.148C526.446 324.172 526.525 323.196 526.525 322.043C526.841 313.351 527.235 300.313 518.313 285.413C516.181 281.865 511.523 277.785 508.365 277.519C508.128 277.519 507.97 277.697 507.97 277.963C507.97 278.229 508.128 278.406 508.365 278.406C510.97 278.584 515.55 282.22 517.682 285.856C526.525 300.58 526.051 313.529 525.735 322.043C525.735 323.196 525.656 324.172 525.656 325.148C525.656 325.414 525.893 325.591 526.051 325.591Z" fill="#23286B"/>
<path d="M525.419 294.637C525.656 294.637 525.814 294.371 525.814 294.105C525.34 289.67 520.84 284.26 518.55 282.043C515.313 278.85 511.523 278.406 507.891 278.406C507.654 278.406 507.496 278.584 507.496 278.85C507.496 279.116 507.654 279.293 507.891 279.293C511.365 279.293 514.918 279.737 517.997 282.664C520.208 284.792 524.551 290.025 524.946 294.194C525.025 294.46 525.183 294.637 525.419 294.637Z" fill="#23286B"/>
<path d="M447.409 634.333C448.989 641.606 452.542 656.152 450.252 656.861C444.883 657.039 399.325 657.039 389.376 657.039C388.428 655.353 388.665 653.846 389.139 652.249C390.56 647.726 395.377 644.089 399.403 642.493C403.43 640.896 406.036 640.63 409.905 638.768C414.405 636.728 417.169 634.51 422.143 633.712C424.117 633.357 429.091 633.446 431.144 633.623C436.592 633.801 442.04 634.067 447.409 634.333Z" fill="url(#paint12_linear_263_1155)"/>
<path d="M427.512 451.447H395.456V544.487H427.512V451.447Z" fill="#428DFC"/>
<path d="M443.225 467.235C445.041 466.436 462.648 535.528 466.596 544.753C471.334 556.017 480.098 561.959 481.914 574.908C483.651 586.971 488.546 594.51 493.047 605.508C496.916 614.909 494.942 625.02 497.389 634.688C488.309 638.235 473.781 635.752 463.675 635.131C464.148 625.641 457.516 613.224 453.805 604.798C448.831 593.623 442.119 583.512 436.04 573.046C432.723 567.281 427.433 561.693 424.986 555.839C422.222 549.187 422.222 539.52 421.748 532.247C421.038 522.668 422.143 513 421.59 503.244C421.117 494.729 419.538 485.949 418.432 477.523C417.485 470.073 412.747 456.148 419.222 452.334C425.617 448.609 438.093 450.028 445.199 450.471C443.935 455.97 443.067 461.026 443.146 466.702C442.435 466.968 443.225 468.299 443.225 467.235Z" fill="#151A4F"/>
<path d="M407.931 419.429C402.167 427.589 403.746 446.214 405.009 456.148C407.141 472.29 408.799 489.231 410.142 505.639C411.8 525.595 412.352 546.26 412.352 566.394C412.352 584.487 414.09 602.581 414.011 620.408C414.011 625.286 413.932 633.623 412.984 638.236C419.143 638.147 442.672 637.969 448.752 638.324C451.278 626.705 452.384 617.038 449.225 605.508C446.146 594.244 445.199 586.793 447.725 575.086C450.647 561.604 446.383 554.952 442.198 542.89C440.303 537.48 441.725 534.021 442.198 528.61C442.83 521.692 441.882 514.508 442.198 507.501C442.672 496.947 444.646 473.443 448.357 468.122C451.831 463.066 456.569 457.301 457.042 446.214C457.2 442.844 457.121 428.83 455.226 425.815C452.621 421.646 441.567 429.717 437.698 429.363C429.012 428.564 416.695 416.679 408.484 419.872C407.694 420.316 407.694 418.897 407.931 419.429Z" fill="url(#paint13_linear_263_1155)"/>
<path d="M478.282 338.895C481.835 337.299 496.679 373.131 499.916 377.831C504.101 383.863 514.76 397.521 516.339 404.617C517.208 408.431 510.733 412.244 504.969 414.994C500.311 417.211 494.152 418.187 489.573 420.67C486.572 422.267 475.202 426.169 475.202 426.169C475.202 426.169 468.333 411.091 467.465 408.342C470.86 405.859 474.571 404.972 478.992 401.867C483.809 398.497 483.888 397.521 489.336 398.763C487.362 395.836 484.914 396.812 482.861 395.038C480.808 393.264 479.071 389.362 477.334 387.056C473.702 382.177 469.044 378.807 465.175 374.018C453.884 360.004 465.412 347.321 472.123 341.201C471.728 340.225 475.36 339.782 478.282 338.895Z" fill="#89B3F4"/>
<path d="M489.573 322.753C482.309 321.423 470.544 318.851 458.148 315.658C457.516 315.48 456.884 316.012 456.805 316.811C456.726 319.915 456.726 321.6 456.49 324.261C456.411 325.857 454.358 326.656 452.621 327.454C447.015 330.026 441.882 332.332 437.303 337.92C429.012 348.031 422.933 353.707 418.511 366.745C414.879 377.477 413.063 388.741 410.142 399.65C408.562 405.682 407.22 411.713 405.878 417.744C405.088 421.38 401.851 430.427 402.878 433.797C402.878 433.886 402.562 437.168 402.562 437.256C421.038 437.966 440.461 438.587 457.121 438.676C457.121 433.531 457.2 422.09 457.042 419.429C456.805 414.817 459.174 412.866 458.306 409.229C460.2 408.697 463.517 409.229 463.754 407.101C463.911 405.948 463.911 405.061 462.964 404.262C470.149 396.369 474.255 380.493 479.15 370.559C481.756 365.326 483.414 360.004 483.73 353.885C484.046 348.031 483.098 340.492 481.361 335.791C483.256 332.687 490.204 321.955 489.573 322.753Z" fill="url(#paint14_linear_263_1155)"/>
<path d="M360.714 308.119C358.819 312.908 357.477 318.318 356.056 323.374C355.108 323.551 354.872 322.842 355.424 321.068M420.169 346.966C417.722 341.645 414.958 334.549 410.221 331.622C404.851 335.702 391.902 334.372 389.139 338.984" stroke="black" stroke-width="1.88234" stroke-miterlimit="10"/>
<path d="M437.54 338.629L438.014 338.363C440.303 336.855 442.514 334.904 444.725 333.042C449.147 329.139 453.726 325.059 459.411 325.325C464.07 325.503 478.914 334.195 481.44 337.122C481.756 337.476 482.23 337.476 482.546 337.122C482.861 336.767 482.861 336.235 482.546 335.88C479.861 332.687 464.464 323.729 459.411 323.551C453.174 323.285 448.357 327.543 443.699 331.711C442.041 333.219 440.461 334.549 438.803 335.791C438.566 335.525 438.251 335.436 437.935 335.614C437.303 335.88 436.671 336.323 436.592 337.122C436.592 337.388 436.592 337.92 437.145 338.363L437.54 338.629Z" fill="#D6D7D8"/>
<path d="M504.969 270.424C508.286 272.73 510.733 278.85 510.733 278.85C510.733 278.85 514.444 281.776 515.392 282.575C520.445 286.655 521.866 296.322 523.288 302.974C524.393 308.03 524.867 316.81 523.367 322.043C521.629 328.074 520.682 327.72 515.471 328.074C509.233 328.518 493.994 328.074 486.493 327.808C484.125 327.72 482.23 325.502 482.309 322.841C482.388 316.367 482.467 305.014 482.309 298.539C482.072 290.025 480.572 280.18 487.836 275.479C490.678 273.617 493.521 271.488 496.679 271.044C498.969 270.867 505.206 270.246 504.969 270.424Z" fill="#23286B"/>
<path d="M507.891 388.652C502.995 387.588 507.575 399.828 507.259 402.222C506.864 405.149 500.232 416.325 504.654 414.817C510.181 412.954 514.839 410.56 516.418 407.721C519.024 402.843 515.392 400.182 513.102 396.191C511.602 393.708 509.628 391.491 507.891 388.652Z" fill="url(#paint15_linear_263_1155)"/>
<path d="M438.25 411.092H459.885C460.358 411.092 460.674 410.737 460.674 410.205C460.674 409.673 460.358 409.318 459.885 409.318H438.25C437.777 409.318 437.461 409.673 437.461 410.205C437.461 410.737 437.856 411.092 438.25 411.092Z" fill="#D6D7D8"/>
<path d="M317.92 266.255C315.472 262.707 313.024 250.645 317.288 256.676C318.867 258.982 322.973 256.321 325.342 259.869C327.71 263.417 328.026 267.674 325.973 269.448C323.92 271.133 320.288 269.714 317.92 266.255Z" fill="url(#paint16_linear_263_1155)"/>
<path opacity="0.51" d="M430.75 444.706C430.671 444.706 430.592 444.706 430.592 444.618C430.592 444.529 430.592 444.44 430.671 444.44C430.75 444.44 430.829 444.44 430.829 444.529C430.908 444.529 430.829 444.618 430.75 444.706ZM429.644 441.247C429.565 441.247 429.486 441.247 429.486 441.159C429.486 441.07 429.486 440.981 429.565 440.981C429.644 440.981 429.723 440.981 429.723 441.07C429.723 441.159 429.723 441.247 429.644 441.247ZM417.248 444.174C417.248 444.263 417.169 444.263 417.09 444.263C417.011 444.263 417.011 444.174 417.011 444.085C417.011 443.997 417.09 443.997 417.169 443.997C417.248 443.997 417.248 444.085 417.248 444.174ZM435.566 438.941C435.487 439.03 435.408 439.03 435.408 438.941C435.329 438.853 435.329 438.764 435.408 438.764C435.487 438.675 435.566 438.675 435.566 438.764C435.645 438.853 435.645 438.941 435.566 438.941ZM424.117 443.908C424.117 443.997 424.038 444.085 423.959 444.085C423.88 444.085 423.801 443.997 423.801 443.908C423.801 443.819 423.88 443.731 423.959 443.731C424.038 443.731 424.117 443.819 424.117 443.908ZM424.196 440.272C424.196 440.36 424.117 440.449 424.038 440.449C423.959 440.449 423.88 440.36 423.88 440.272C423.88 440.183 423.959 440.094 424.038 440.094C424.117 440.183 424.196 440.183 424.196 440.272ZM448.357 446.214C448.278 446.303 448.12 446.303 448.041 446.214C447.962 446.125 447.962 445.948 448.041 445.859C448.12 445.771 448.278 445.771 448.357 445.859C448.436 445.948 448.436 446.125 448.357 446.214ZM443.857 441.513C443.778 441.602 443.62 441.602 443.462 441.513C443.383 441.425 443.383 441.247 443.462 441.07C443.541 440.981 443.699 440.981 443.778 441.07C443.935 441.247 443.935 441.425 443.857 441.513ZM429.486 462.8C429.486 462.977 429.407 463.066 429.249 463.066C429.092 463.066 429.013 462.977 429.013 462.8C429.013 462.622 429.092 462.534 429.249 462.534C429.328 462.534 429.486 462.622 429.486 462.8ZM429.013 449.052C429.013 449.23 428.934 449.318 428.776 449.318C428.618 449.318 428.539 449.23 428.539 449.052C428.539 448.875 428.618 448.786 428.776 448.786C428.855 448.786 429.013 448.875 429.013 449.052ZM428.776 442.134C428.776 442.312 428.697 442.4 428.539 442.4C428.381 442.4 428.302 442.312 428.302 442.134C428.302 441.957 428.381 441.868 428.539 441.868C428.618 441.868 428.776 441.957 428.776 442.134ZM441.251 456.502C441.093 456.591 441.014 456.503 440.935 456.325C440.856 456.148 440.935 456.059 441.093 455.97C441.251 455.882 441.33 455.97 441.409 456.148C441.488 456.236 441.409 456.414 441.251 456.502ZM438.724 450.205C438.566 450.294 438.487 450.205 438.408 450.028C438.33 449.85 438.408 449.762 438.566 449.673C438.724 449.584 438.803 449.673 438.882 449.85C438.882 450.028 438.882 450.205 438.724 450.205ZM436.198 443.997C436.04 444.085 435.882 443.997 435.882 443.819C435.803 443.642 435.882 443.553 436.04 443.465C436.198 443.376 436.356 443.465 436.356 443.553C436.356 443.731 436.356 443.908 436.198 443.997ZM418.037 457.567C417.959 457.744 417.88 457.744 417.722 457.744C417.564 457.656 417.564 457.567 417.564 457.389C417.564 457.212 417.722 457.123 417.88 457.212C417.959 457.212 418.037 457.389 418.037 457.567ZM422.301 444.618C422.222 444.795 422.143 444.795 421.985 444.795C421.827 444.706 421.748 444.618 421.827 444.44C421.906 444.263 421.985 444.263 422.143 444.263C422.222 444.351 422.301 444.44 422.301 444.618ZM446.699 453.487C446.62 453.576 446.462 453.487 446.383 453.398C446.304 453.31 446.383 453.132 446.462 453.043C446.541 452.955 446.699 453.043 446.778 453.132C446.778 453.31 446.778 453.487 446.699 453.487ZM443.935 448.165C443.857 448.254 443.699 448.165 443.62 448.077C443.541 447.988 443.62 447.811 443.699 447.722C443.778 447.633 443.935 447.722 444.014 447.811C444.093 447.988 444.014 448.165 443.935 448.165ZM441.251 442.755C441.251 442.844 441.172 442.844 441.172 442.932C441.093 443.021 440.935 442.932 440.856 442.844C440.777 442.755 440.856 442.578 440.935 442.489C441.014 442.489 441.093 442.4 441.172 442.489C441.251 442.489 441.251 442.578 441.251 442.578C441.33 442.578 441.33 442.666 441.251 442.755ZM423.959 456.769C423.959 456.946 423.801 456.946 423.643 456.946C423.565 456.946 423.486 456.769 423.486 456.68C423.486 456.502 423.643 456.502 423.722 456.502C423.959 456.502 424.038 456.68 423.959 456.769ZM426.802 444.884C426.802 445.061 426.644 445.061 426.565 445.061C426.486 445.061 426.407 444.884 426.407 444.795C426.407 444.618 426.565 444.618 426.644 444.618C426.723 444.618 426.802 444.795 426.802 444.884ZM428.223 438.941C428.223 439.119 428.065 439.119 427.907 439.119C427.828 439.119 427.749 438.941 427.749 438.853C427.749 438.764 427.907 438.675 427.986 438.675C428.144 438.675 428.223 438.853 428.223 438.941ZM435.803 454.463C435.803 454.64 435.724 454.729 435.566 454.729C435.408 454.729 435.329 454.64 435.329 454.551C435.329 454.374 435.408 454.285 435.487 454.285C435.645 454.196 435.724 454.285 435.803 454.463ZM435.013 448.343C435.013 448.431 434.934 448.609 434.855 448.609C434.697 448.609 434.619 448.52 434.619 448.431C434.619 448.254 434.697 448.165 434.776 448.165C434.934 448.077 435.013 448.165 435.013 448.343ZM434.303 442.223C434.303 442.4 434.224 442.489 434.145 442.489C433.987 442.489 433.908 442.4 433.908 442.312C433.908 442.134 433.987 442.045 434.066 442.045C434.224 441.957 434.303 442.045 434.303 442.223ZM418.827 443.908C418.748 443.997 418.59 444.085 418.511 443.997C418.432 443.908 418.432 443.731 418.511 443.642C418.59 443.553 418.748 443.553 418.827 443.553C418.827 443.553 418.906 443.731 418.827 443.908C418.827 443.819 418.827 443.819 418.827 443.908ZM433.987 443.021C433.987 443.11 433.908 443.198 433.829 443.198C433.75 443.198 433.671 443.11 433.671 443.021C433.671 442.932 433.75 442.844 433.829 442.844C433.908 442.932 433.987 442.932 433.987 443.021ZM434.145 439.473C434.145 439.562 434.066 439.651 433.987 439.651C433.908 439.651 433.829 439.562 433.829 439.473C433.829 439.385 433.908 439.296 433.987 439.296C434.145 439.296 434.145 439.385 434.145 439.473ZM440.303 440.272C440.224 440.272 440.146 440.272 440.146 440.183C440.146 440.094 440.146 440.006 440.224 440.006C440.303 440.006 440.382 440.006 440.382 440.094C440.382 440.183 440.382 440.272 440.303 440.272ZM428.065 439.385C428.065 439.473 427.986 439.473 427.907 439.473C427.828 439.473 427.828 439.385 427.828 439.296C427.828 439.207 427.907 439.207 427.986 439.207C428.065 439.207 428.065 439.296 428.065 439.385ZM448.989 441.957C448.91 442.045 448.831 441.957 448.752 441.868C448.673 441.779 448.752 441.691 448.831 441.602C448.91 441.513 448.989 441.602 449.068 441.691C449.068 441.779 448.989 441.868 448.989 441.957ZM433.671 444.351C433.671 444.44 433.592 444.529 433.513 444.44C433.434 444.44 433.355 444.351 433.434 444.263C433.434 444.174 433.513 444.085 433.592 444.174C433.671 444.174 433.75 444.263 433.671 444.351ZM434.619 440.36C434.619 440.449 434.54 440.538 434.461 440.449C434.382 440.449 434.303 440.36 434.382 440.272C434.382 440.183 434.461 440.094 434.54 440.183C434.619 440.183 434.619 440.272 434.619 440.36ZM441.251 442.755C441.093 442.755 441.014 442.755 441.014 442.666C441.014 442.578 441.093 442.489 441.172 442.489C441.251 442.489 441.33 442.578 441.33 442.666C441.33 442.755 441.33 442.666 441.251 442.755ZM427.67 438.941C427.591 439.03 427.512 439.03 427.433 438.941C427.354 438.853 427.354 438.764 427.433 438.675C427.512 438.586 427.591 438.586 427.67 438.586V438.941ZM446.62 460.05C446.62 460.228 446.541 460.316 446.383 460.405C446.225 460.405 446.146 460.316 446.067 460.139C446.067 459.962 446.146 459.873 446.304 459.784C446.462 459.784 446.541 459.873 446.62 460.05ZM445.83 453.043C445.83 453.221 445.751 453.31 445.594 453.398C445.436 453.487 445.357 453.31 445.278 453.132C445.278 452.955 445.357 452.866 445.515 452.777C445.673 452.689 445.83 452.866 445.83 453.043ZM445.041 445.948C445.041 446.125 444.962 446.214 444.804 446.303C444.646 446.303 444.567 446.214 444.488 446.037C444.488 445.859 444.567 445.771 444.725 445.682C444.883 445.682 445.041 445.771 445.041 445.948ZM424.828 446.746C424.749 446.835 424.591 446.924 424.433 446.835C424.354 446.746 424.275 446.569 424.354 446.391C424.433 446.214 424.591 446.214 424.749 446.303C424.907 446.391 424.907 446.569 424.828 446.746ZM428.697 441.07C428.618 441.159 428.46 441.247 428.302 441.159C428.223 441.07 428.144 440.892 428.223 440.715C428.302 440.626 428.46 440.538 428.618 440.715C428.776 440.804 428.776 440.981 428.697 441.07ZM435.961 449.141C435.882 449.318 435.803 449.407 435.645 449.318C435.487 449.318 435.408 449.141 435.487 448.964C435.487 448.786 435.645 448.697 435.803 448.786C435.961 448.786 436.04 448.964 435.961 449.141ZM437.698 442.312C437.698 442.489 437.54 442.578 437.382 442.489C437.224 442.489 437.145 442.312 437.224 442.134C437.224 441.957 437.382 441.868 437.54 441.957C437.619 441.957 437.698 442.134 437.698 442.312ZM439.514 451.536C439.514 451.713 439.356 451.802 439.198 451.713C439.04 451.713 438.961 451.536 439.04 451.358C439.04 451.181 439.198 451.092 439.356 451.092C439.435 451.181 439.514 451.358 439.514 451.536ZM440.935 444.618C440.935 444.795 440.777 444.884 440.619 444.795C440.461 444.795 440.382 444.618 440.461 444.44C440.54 444.263 440.619 444.174 440.777 444.263C440.856 444.263 440.935 444.44 440.935 444.618ZM450.173 447.988C450.173 448.165 450.094 448.254 449.936 448.343C449.778 448.343 449.62 448.254 449.62 448.077C449.62 447.899 449.699 447.722 449.857 447.722C450.015 447.722 450.173 447.811 450.173 447.988ZM449.147 440.981C449.147 441.159 449.068 441.336 448.91 441.336C448.752 441.336 448.673 441.247 448.594 441.07C448.594 440.892 448.673 440.715 448.831 440.715C448.989 440.715 449.147 440.804 449.147 440.981ZM427.749 449.23C427.67 449.318 427.512 449.407 427.354 449.318C427.275 449.23 427.197 449.052 427.275 448.875C427.354 448.786 427.512 448.697 427.591 448.786C427.749 448.964 427.828 449.141 427.749 449.23ZM431.381 443.465C431.302 443.553 431.144 443.642 430.986 443.553C430.908 443.465 430.829 443.287 430.908 443.11C430.986 443.021 431.144 442.932 431.223 443.021C431.46 443.198 431.46 443.376 431.381 443.465ZM438.251 446.214C438.172 446.303 438.093 446.391 438.014 446.303C437.935 446.214 437.856 446.125 437.935 446.037C438.014 445.948 438.093 445.859 438.172 445.948C438.251 445.948 438.33 446.037 438.251 446.214ZM440.303 441.336C440.224 441.425 440.146 441.513 440.067 441.425C439.988 441.336 439.909 441.247 439.988 441.159C440.067 441.07 440.146 440.981 440.224 441.07C440.303 441.07 440.303 441.247 440.303 441.336ZM448.357 446.037C448.357 446.125 448.278 446.214 448.12 446.214C448.041 446.214 447.962 446.125 447.962 445.948C447.962 445.859 448.041 445.771 448.199 445.771C448.278 445.771 448.357 445.859 448.357 446.037ZM448.515 440.715C448.515 440.804 448.436 440.892 448.278 440.892C448.199 440.892 448.12 440.804 448.12 440.626C448.12 440.538 448.199 440.449 448.278 440.449C448.436 440.449 448.515 440.538 448.515 440.715Z" fill="white"/>
<path d="M429.407 353.707C423.091 360.359 423.012 375.88 424.828 384.75C427.117 395.836 433.75 405.681 443.541 409.85C431.776 413.664 424.749 416.502 418.195 429.363C413.221 439.208 408.878 449.762 405.167 460.405C398.061 480.982 399.324 507.324 400.035 529.231C400.193 534.908 400.667 539.342 400.509 544.487C398.535 544.132 393.64 544.664 391.429 544.664C386.297 544.753 388.428 542.89 388.192 537.036C388.034 532.158 388.27 529.32 388.428 524.176C388.744 511.581 388.428 498.455 389.534 485.86C391.824 460.937 395.692 434.507 401.693 410.648C404.615 398.941 409.984 386.701 414.563 375.26C418.985 364.084 422.775 350.958 433.671 342C432.487 346.168 432.092 350.869 429.407 353.707Z" fill="url(#paint17_linear_263_1155)"/>
<path d="M459.253 324.527C470.86 328.962 469.676 340.492 461.859 349.893C454.516 358.851 443.936 357.166 434.382 354.86C425.223 352.643 415.985 350.603 406.747 348.563C395.456 345.991 386.455 341.024 375.795 335.17C368.452 331.179 360.557 326.922 352.819 325.148C356.214 318.85 358.346 311.4 360.32 304.837C367.979 308.562 377.611 311.844 385.744 313.351C389.85 314.061 419.064 318.762 420.011 318.939C424.354 319.383 428.302 319.915 432.724 320.181C441.488 320.802 449.778 321.511 458.227 324.172C458.464 324.349 458.858 324.527 459.253 324.527Z" fill="url(#paint18_linear_263_1155)"/>
<path d="M416.221 405.238C412.253 405.238 409.036 401.624 409.036 397.167C409.036 392.709 412.253 389.096 416.221 389.096C420.19 389.096 423.406 392.709 423.406 397.167C423.406 401.624 420.19 405.238 416.221 405.238Z" fill="url(#paint19_linear_263_1155)"/>
<path d="M409.273 414.462C406.7 414.462 404.615 412.119 404.615 409.229C404.615 406.339 406.7 403.996 409.273 403.996C411.846 403.996 413.932 406.339 413.932 409.229C413.932 412.119 411.846 414.462 409.273 414.462Z" fill="url(#paint20_linear_263_1155)"/>
<path d="M414.327 349.272C420.959 348.031 413.537 339.339 410.931 337.742C407.299 335.525 401.535 334.549 397.509 334.46C395.298 334.372 383.77 334.283 384.481 338.895C384.876 341.645 395.219 344.571 397.272 345.37C402.325 347.232 408.879 349.627 414.09 349.804C413.695 349.627 414.642 349.095 414.327 349.272Z" fill="url(#paint21_linear_263_1155)"/>
<path d="M414.484 375.792C416.853 376.058 418.669 378.364 418.669 381.024C418.669 383.951 416.537 386.257 414.011 386.257C412.826 386.257 411.721 385.725 410.852 384.927C412.037 381.823 413.3 378.807 414.484 375.792Z" fill="url(#paint22_linear_263_1155)"/>
<path d="M402.641 407.81C404.062 402.754 405.878 397.61 407.852 392.466C409.984 393.885 411.484 396.546 411.484 399.561C411.484 404.173 408.168 407.898 404.062 407.898C403.588 407.987 403.114 407.898 402.641 407.81ZM400.904 414.55C404.141 415.437 406.51 418.719 406.51 422.622C406.51 427.234 403.193 430.959 399.088 430.959C398.535 430.959 397.982 430.87 397.429 430.781C398.456 425.194 399.64 419.783 400.904 414.55Z" fill="#E94A47"/>
</g>
<g clip-path="url(#clip2_263_1155)">
<path d="M149.848 119.623C145.655 119.025 141.57 118.172 137.592 117.068C138.078 112.298 138.686 107.804 139.48 103.726C143.59 104.387 147.679 105.24 151.735 106.282C151.358 110.639 150.711 115.092 149.848 119.623Z" fill="#E94A47"/>
</g>
<g clip-path="url(#clip3_263_1155)">
<path d="M132.342 220.379C130.944 221.922 129.496 223.343 127.998 224.644C126.61 223.002 125.344 221.392 124.266 219.833C125.66 218.343 127.11 216.92 128.61 215.567C129.898 217.04 131.138 218.653 132.342 220.379Z" fill="#E94A47"/>
</g>
<g clip-path="url(#clip4_263_1155)">
<path d="M192.747 148.897C190.464 149.802 188.186 150.546 185.913 151.13C185.209 148.555 184.622 146.084 184.215 143.773C186.468 142.924 188.747 142.179 191.049 141.54C191.727 143.873 192.285 146.334 192.747 148.897Z" fill="#A1C3FC"/>
</g>
<g clip-path="url(#clip5_263_1155)">
<path d="M107.892 186.607C100.775 192.905 93.4893 198.625 86.0369 203.772C80.5489 195.605 75.6037 187.649 71.4838 180.015C78.5575 173.957 85.8491 168.23 93.3385 162.85C98.4524 170.196 103.285 178.155 107.892 186.607Z" fill="#23286B"/>
</g>
<g clip-path="url(#clip6_263_1155)">
<path d="M502.316 153.035C496.512 155.199 490.726 156.955 484.96 158.306C483.287 151.748 481.907 145.462 480.974 139.589C486.7 137.566 492.491 135.807 498.33 134.318C499.946 140.262 501.255 146.522 502.316 153.035Z" fill="#E94A47"/>
</g>
<g clip-path="url(#clip7_263_1155)">
<path d="M446.863 77.1186C443.26 77.3592 439.717 77.3582 436.235 77.1186C436.076 72.8822 436.052 68.8624 436.235 65.1719C439.776 65.0013 443.322 65.0013 446.863 65.1719C447.065 69.0297 447.051 73.0206 446.863 77.1186Z" fill="#E94A47"/>
</g>
<g clip-path="url(#clip8_263_1155)">
<path d="M428.052 106.027C421.501 109.623 414.914 112.738 408.291 115.377C405.376 108.012 402.847 100.911 400.905 94.2128C407.384 90.7956 413.976 87.6762 420.666 84.8633C423.426 91.5201 425.867 98.6027 428.052 106.027Z" fill="#23286B"/>
</g>
<g clip-path="url(#clip9_263_1155)">
<path d="M165.859 197.726C159.75 195.545 153.86 193.025 148.189 190.17C150.016 183.342 151.962 176.953 154.088 171.233C160.06 173.481 165.955 176.001 171.759 178.789C170.189 185.047 168.194 191.363 165.859 197.726Z" fill="#A1C3FC"/>
</g>
<g clip-path="url(#clip10_263_1155)">
<path d="M522.579 539.861L522.871 539.467C522.807 539.462 522.741 539.461 522.677 539.457C523.606 535.181 521.776 530.65 519.196 527.316C518.052 525.839 516.699 524.472 515.037 523.887C513.303 523.277 511.421 523.581 509.659 524.084C504.52 525.553 499.769 528.705 496.137 533.054C494.957 534.468 493.826 536.284 494.161 538.187C494.536 540.312 496.663 542.244 495.792 544.175C494.893 546.166 491.828 545.442 490.727 547.3C489.03 550.161 494.286 553.593 492.936 556.68C492.245 558.262 490.339 558.395 488.904 559.101C486.152 560.458 485.049 564.874 486.772 567.646C488.304 570.112 491.697 571.865 491.056 574.787C490.832 575.811 490.118 576.591 489.462 577.344C487.306 579.818 485.413 582.684 484.485 585.988C483.556 589.293 483.693 593.09 485.354 596.009C486.205 597.504 487.403 598.703 488.626 599.824C494.72 605.415 497.081 611.289 501.971 618.219C505.026 622.549 511.82 650.291 513.481 658.096C514.742 646.737 517.644 612.955 518.863 611.081C520.083 609.206 520.717 606.571 519.68 604.563C518.924 603.099 517.482 602.307 516.254 601.328C515.026 600.35 513.866 598.81 514.161 597.149C514.298 596.382 514.729 595.728 515.169 595.123C516.565 593.199 518.188 591.441 519.204 589.235C520.221 587.03 520.512 584.168 519.21 582.161C517.989 580.278 515.641 579.45 513.809 578.295C515.373 576.945 517.667 576.025 518.967 574.282C519.959 572.953 520.322 571.061 519.906 569.39C519.467 567.626 518.279 566.264 517.328 564.766C517.524 563.896 517.466 563.023 517.007 562.233C516.763 561.814 516.435 561.483 516.06 561.205C516.01 560.323 516.186 559.472 516.706 558.796C517.498 557.767 518.839 557.491 519.717 556.553C521.11 555.067 520.64 552.02 518.884 551.148C517.874 550.647 516.384 550.517 516.22 549.288C516.203 549.148 516.206 549.007 516.23 548.869C518.833 546.15 521.614 543.587 522.579 539.861Z" fill="url(#paint23_linear_263_1155)"/>
<path d="M536.116 604.952C535.395 602.918 533.72 601.351 533.384 599.194C532.897 596.063 535.344 593.476 536.919 590.838C539.293 586.863 539.84 581.58 538.342 577.097C536.844 572.614 533.341 569.046 529.229 567.818C526.612 567.037 523.731 567.12 521.405 565.561C518.238 563.437 515.711 558.342 512.236 559.726C509.806 560.694 509.235 564.419 510.038 567.177C510.842 569.934 512.555 572.275 513.305 575.051C514.74 580.357 512.434 585.904 510.601 591.051C508.769 596.198 507.509 602.554 510.567 606.901C512.057 609.021 514.443 610.4 515.308 612.922C516.485 616.353 514.335 619.949 513.278 623.428C511.309 629.904 513.557 637.699 518.529 641.637C518.698 633.397 522.105 625.307 527.666 619.945C529.817 617.871 532.28 616.176 534.136 613.766C535.992 611.356 537.166 607.914 536.116 604.952Z" fill="url(#paint24_linear_263_1155)"/>
<path d="M510.681 654.169C510.634 654.168 510.587 654.157 510.543 654.135C510.5 654.113 510.461 654.08 510.43 654.04C510.399 653.999 510.376 653.952 510.363 653.901C510.349 653.85 510.345 653.796 510.352 653.743C511.934 641.092 514.318 629.221 517.436 618.458C517.449 618.412 517.471 618.369 517.499 618.331C517.528 618.294 517.562 618.264 517.601 618.241C517.64 618.219 517.683 618.206 517.726 618.202C517.77 618.199 517.813 618.204 517.855 618.22C517.896 618.235 517.935 618.259 517.968 618.291C518.001 618.323 518.028 618.362 518.048 618.406C518.068 618.449 518.079 618.497 518.083 618.546C518.086 618.595 518.081 618.644 518.067 618.691C514.96 629.411 512.586 641.24 511.009 653.847C510.998 653.936 510.959 654.018 510.899 654.077C510.838 654.136 510.761 654.168 510.681 654.169Z" fill="#23286B"/>
<path d="M513.861 613.407C514.814 611.828 517.417 611.948 519.675 613.675C521.934 615.403 522.992 618.083 522.04 619.663C521.087 621.242 518.483 621.123 516.225 619.395C513.966 617.668 512.908 614.987 513.861 613.407Z" fill="#C6DDFE"/>
<path d="M518.462 616.555C518.409 616.555 518.357 616.54 518.31 616.513C518.263 616.486 518.222 616.446 518.192 616.398C518.161 616.35 518.141 616.294 518.133 616.235C518.125 616.176 518.13 616.116 518.147 616.06C519.75 610.792 521.57 605.674 523.555 600.848C523.574 600.804 523.6 600.764 523.632 600.731C523.664 600.697 523.701 600.672 523.742 600.655C523.783 600.638 523.827 600.63 523.87 600.632C523.914 600.634 523.957 600.646 523.996 600.666C524.036 600.687 524.072 600.716 524.101 600.752C524.131 600.788 524.154 600.83 524.169 600.876C524.184 600.922 524.19 600.971 524.189 601.02C524.187 601.069 524.177 601.117 524.158 601.162C522.182 605.964 520.371 611.058 518.776 616.301C518.754 616.375 518.712 616.439 518.655 616.485C518.599 616.53 518.531 616.555 518.462 616.555Z" fill="#23286B"/>
<path d="M518.509 594.342C519.462 592.762 522.998 593.596 526.407 596.203C529.816 598.809 531.806 602.203 530.854 603.783C529.901 605.363 526.365 604.529 522.956 601.923C519.548 599.315 517.557 595.922 518.509 594.342Z" fill="#C6DDFE"/>
<path d="M524.555 599.713C524.499 599.713 524.443 599.696 524.394 599.666C524.345 599.635 524.304 599.591 524.274 599.538C524.244 599.484 524.227 599.423 524.223 599.36C524.22 599.297 524.231 599.234 524.255 599.177C524.854 597.769 525.473 596.372 526.112 594.986C527.839 591.241 529.723 587.59 531.757 584.046C531.781 584.005 531.811 583.969 531.847 583.941C531.883 583.914 531.923 583.894 531.966 583.884C532.009 583.873 532.053 583.873 532.096 583.882C532.139 583.891 532.18 583.909 532.216 583.935C532.253 583.962 532.284 583.997 532.309 584.037C532.334 584.077 532.351 584.123 532.36 584.171C532.369 584.219 532.37 584.268 532.362 584.316C532.354 584.364 532.338 584.41 532.314 584.451C530.292 587.976 528.419 591.607 526.701 595.33C526.065 596.708 525.45 598.099 524.854 599.5C524.827 599.563 524.785 599.617 524.732 599.655C524.679 599.693 524.617 599.713 524.555 599.713Z" fill="#23286B"/>
<path d="M526.412 575.896C527.539 574.632 531.107 576.605 534.382 580.305C537.657 584.005 539.398 588.029 538.271 589.293C537.144 590.558 533.576 588.584 530.301 584.884C527.026 581.185 525.285 577.16 526.412 575.896Z" fill="#C6DDFE"/>
<path d="M533.082 582.834C533.021 582.834 532.962 582.816 532.911 582.781C532.859 582.746 532.817 582.696 532.789 582.636C532.76 582.576 532.747 582.509 532.75 582.441C532.753 582.374 532.772 582.308 532.806 582.252C535.498 577.731 538.436 573.43 541.537 569.467C541.566 569.43 541.601 569.4 541.641 569.379C541.68 569.357 541.722 569.345 541.766 569.342C541.81 569.338 541.853 569.345 541.895 569.361C541.936 569.377 541.974 569.402 542.007 569.434C542.039 569.467 542.066 569.506 542.085 569.55C542.105 569.594 542.116 569.642 542.119 569.691C542.121 569.74 542.115 569.789 542.101 569.836C542.087 569.882 542.065 569.925 542.036 569.962C538.954 573.9 536.034 578.175 533.357 582.669C533.327 582.72 533.286 582.762 533.238 582.791C533.19 582.819 533.136 582.834 533.082 582.834Z" fill="#23286B"/>
<path d="M538.581 556.633C540.571 555.656 544.235 560.16 546.764 566.693C549.294 573.226 549.73 579.313 547.741 580.29C545.75 581.267 542.087 576.762 539.557 570.23C537.028 563.697 536.591 557.609 538.581 556.633Z" fill="#C6DDFE"/>
<path d="M543.418 568.053C543.353 568.053 543.29 568.032 543.236 567.992C543.183 567.952 543.14 567.895 543.114 567.829C543.088 567.762 543.08 567.689 543.091 567.617C543.102 567.546 543.131 567.479 543.174 567.426C546.363 563.541 549.769 559.936 553.298 556.714C553.331 556.683 553.37 556.66 553.412 556.646C553.454 556.632 553.498 556.627 553.541 556.632C553.585 556.638 553.627 556.652 553.665 556.676C553.704 556.699 553.738 556.731 553.765 556.769C553.793 556.807 553.813 556.851 553.825 556.898C553.838 556.945 553.842 556.994 553.837 557.043C553.833 557.092 553.82 557.139 553.799 557.182C553.778 557.225 553.75 557.263 553.716 557.294C550.212 560.494 546.83 564.073 543.662 567.933C543.631 567.971 543.593 568.001 543.551 568.022C543.509 568.043 543.464 568.053 543.418 568.053Z" fill="#23286B"/>
<path d="M546.491 543.935C548.164 542.377 553.323 546.295 558.014 552.684C562.704 559.073 565.15 565.515 563.477 567.072C561.803 568.63 556.645 564.712 551.954 558.323C547.263 551.934 544.818 545.492 546.491 543.935Z" fill="#C6DDFE"/>
<path d="M555.256 555.82C555.187 555.819 555.119 555.795 555.063 555.749C555.007 555.704 554.964 555.64 554.942 555.566C554.92 555.492 554.918 555.412 554.938 555.338C554.958 555.263 554.999 555.197 555.054 555.15C557.367 553.139 559.768 551.259 562.247 549.515C562.322 549.468 562.41 549.455 562.493 549.479C562.576 549.503 562.648 549.562 562.693 549.644C562.738 549.725 562.754 549.824 562.736 549.918C562.719 550.012 562.669 550.095 562.599 550.15C560.138 551.88 557.755 553.746 555.46 555.742C555.401 555.792 555.33 555.82 555.256 555.82Z" fill="#23286B"/>
<path d="M516.578 661.321L515.378 657.214C515.361 657.155 515.357 657.092 515.367 657.031C515.377 656.97 515.4 656.912 515.434 656.864C515.469 656.815 515.513 656.777 515.564 656.753C515.615 656.729 515.67 656.719 515.725 656.724C514.935 636.82 514.512 613.487 516.862 589.762C516.974 588.634 517.093 587.499 517.216 586.389C517.228 586.291 517.273 586.203 517.342 586.142C517.412 586.081 517.499 586.053 517.587 586.064C517.674 586.077 517.754 586.128 517.808 586.206C517.862 586.284 517.886 586.384 517.875 586.482C517.752 587.602 517.634 588.723 517.523 589.845C515.102 614.276 515.63 638.305 516.465 658.588L516.578 661.321Z" fill="#1D72D8"/>
<path d="M513.108 586.533C512.858 585.513 514.615 584.078 517.033 583.327C519.451 582.576 521.613 582.794 521.863 583.814C522.113 584.834 520.356 586.27 517.938 587.02C515.52 587.771 513.358 587.553 513.108 586.533Z" fill="#23286B"/>
<path d="M517.732 585.168C517.685 585.167 517.638 585.156 517.595 585.134C517.552 585.112 517.514 585.08 517.482 585.04C517.451 585 517.428 584.953 517.414 584.902C517.401 584.851 517.397 584.798 517.403 584.745C518.209 577.799 519.255 571 520.512 564.537C520.52 564.489 520.537 564.442 520.562 564.401C520.587 564.359 520.618 564.324 520.655 564.296C520.692 564.269 520.734 564.25 520.777 564.241C520.821 564.232 520.866 564.233 520.909 564.244C520.952 564.254 520.993 564.274 521.03 564.303C521.066 564.332 521.096 564.369 521.12 564.411C521.143 564.453 521.159 564.5 521.166 564.549C521.173 564.599 521.171 564.649 521.16 564.697C519.908 571.139 518.865 577.918 518.061 584.843C518.05 584.932 518.011 585.015 517.951 585.075C517.89 585.134 517.813 585.167 517.732 585.168Z" fill="#1D72D8"/>
<path d="M515.098 565.225C514.848 564.205 517.119 562.61 520.17 561.663C523.22 560.715 525.896 560.774 526.146 561.794C526.396 562.814 524.125 564.409 521.074 565.356C518.024 566.303 515.348 566.245 515.098 565.225Z" fill="#23286B"/>
<path d="M521.152 563.395C521.102 563.395 521.052 563.382 521.007 563.358C520.962 563.333 520.923 563.298 520.892 563.254C520.86 563.21 520.838 563.159 520.827 563.104C520.816 563.05 520.816 562.993 520.827 562.938C522.012 557.055 523.405 551.293 524.968 545.812C524.995 545.717 525.054 545.639 525.132 545.594C525.211 545.549 525.302 545.54 525.386 545.571C525.47 545.601 525.539 545.667 525.579 545.755C525.62 545.843 525.627 545.946 525.6 546.04C524.043 551.501 522.655 557.242 521.474 563.104C521.458 563.186 521.417 563.26 521.359 563.313C521.3 563.366 521.227 563.395 521.152 563.395Z" fill="#1D72D8"/>
<path d="M525.435 541.433C521.456 541.047 518.125 542.093 517.996 543.768C517.868 545.444 520.99 547.115 524.969 547.501C528.949 547.887 532.279 546.841 532.408 545.166C532.537 543.49 529.415 541.819 525.435 541.433Z" fill="#23286B"/>
<path d="M525.906 544.164C525.853 544.164 525.801 544.15 525.754 544.123C525.707 544.095 525.667 544.056 525.636 544.008C525.606 543.96 525.585 543.904 525.577 543.846C525.57 543.787 525.574 543.728 525.591 543.671C526.74 539.796 528.007 535.966 529.39 532.188C529.406 532.142 529.431 532.101 529.461 532.066C529.492 532.032 529.529 532.004 529.569 531.985C529.609 531.966 529.652 531.957 529.696 531.957C529.74 531.956 529.783 531.966 529.823 531.985C529.993 532.064 530.073 532.282 530.003 532.473C528.627 536.236 527.365 540.049 526.221 543.908C526.199 543.983 526.157 544.048 526.1 544.094C526.044 544.139 525.976 544.164 525.906 544.164Z" fill="#1D72D8"/>
<path d="M522.539 529.36C522.753 527.843 526.262 527.209 530.376 527.945C534.49 528.68 537.651 530.506 537.437 532.023C537.223 533.541 533.715 534.175 529.6 533.439C525.487 532.704 522.325 530.878 522.539 529.36Z" fill="#23286B"/>
<path d="M530.371 530.893C530.316 530.893 530.262 530.878 530.214 530.848C530.165 530.819 530.124 530.777 530.094 530.725C530.064 530.673 530.045 530.614 530.04 530.553C530.035 530.491 530.044 530.429 530.065 530.372C531.207 527.358 532.429 524.382 533.728 521.449C533.748 521.405 533.775 521.366 533.808 521.334C533.841 521.302 533.879 521.277 533.92 521.262C533.962 521.246 534.005 521.24 534.049 521.244C534.092 521.247 534.135 521.26 534.174 521.282C534.213 521.304 534.248 521.334 534.276 521.371C534.305 521.409 534.327 521.452 534.341 521.498C534.354 521.545 534.36 521.594 534.357 521.643C534.354 521.691 534.342 521.739 534.322 521.783C533.029 524.703 531.813 527.665 530.676 530.666C530.651 530.733 530.608 530.791 530.554 530.831C530.5 530.872 530.436 530.893 530.371 530.893Z" fill="#1D72D8"/>
<path d="M525.618 518.412C525.877 516.577 529.895 515.77 534.594 516.61C539.292 517.45 542.891 519.618 542.632 521.453C542.373 523.288 538.354 524.095 533.656 523.255C528.958 522.416 525.359 520.247 525.618 518.412Z" fill="#23286B"/>
<path d="M535.175 519.457C535.118 519.457 535.062 519.44 535.012 519.408C534.963 519.376 534.921 519.331 534.892 519.276C534.862 519.221 534.846 519.158 534.844 519.094C534.842 519.03 534.855 518.966 534.882 518.909C535.659 517.235 536.465 515.579 537.3 513.941C537.322 513.898 537.351 513.861 537.385 513.831C537.42 513.801 537.46 513.779 537.502 513.766C537.544 513.754 537.588 513.75 537.631 513.757C537.674 513.763 537.716 513.779 537.754 513.803C537.792 513.828 537.825 513.86 537.852 513.899C537.878 513.938 537.898 513.982 537.909 514.03C537.921 514.077 537.923 514.127 537.918 514.175C537.912 514.224 537.898 514.271 537.876 514.313C537.046 515.943 536.244 517.591 535.47 519.256C535.442 519.317 535.4 519.367 535.348 519.403C535.296 519.438 535.236 519.457 535.175 519.457Z" fill="#1D72D8"/>
<path d="M501.284 630.378H527.335V667.408H501.284V630.378Z" fill="url(#paint25_linear_263_1155)"/>
</g>
<g clip-path="url(#clip11_263_1155)">
<path d="M175.551 542.632C175.97 543.096 176.64 543.095 177.046 542.63C177.453 542.165 177.442 541.412 177.023 540.949L173.054 536.564C173.041 534.846 173.132 533.147 173.406 531.549L179.503 538.283C179.922 538.747 180.592 538.746 180.998 538.281C181.405 537.816 181.394 537.063 180.975 536.6L174.058 528.959C174.49 527.713 175.087 526.573 175.901 525.589L183.379 533.85C183.798 534.313 184.468 534.312 184.875 533.847C185.281 533.383 185.27 532.63 184.851 532.167L177.512 524.06C178.554 523.288 179.73 522.767 180.987 522.493L187.179 529.333C187.599 529.796 188.268 529.795 188.675 529.33C189.081 528.866 189.071 528.113 188.651 527.65L183.788 522.277C187.358 522.472 191.223 524.367 194.374 527.849C197.525 531.33 199.324 535.691 199.575 539.717L194.954 534.613C194.535 534.149 193.865 534.15 193.459 534.615C193.053 535.08 193.063 535.833 193.482 536.296L199.437 542.874C199.213 544.289 198.762 545.61 198.074 546.773L191.154 539.13C190.735 538.666 190.065 538.668 189.659 539.132C189.252 539.597 189.263 540.35 189.682 540.813L196.697 548.562C195.818 549.442 194.77 550.089 193.611 550.558L187.278 543.563C186.859 543.1 186.189 543.101 185.783 543.566C185.376 544.03 185.387 544.783 185.806 545.246L191.25 551.259C189.813 551.555 188.284 551.672 186.744 551.687L183.326 547.912C182.907 547.449 182.237 547.45 181.831 547.915C181.424 548.38 181.435 549.132 181.854 549.596L183.674 551.606C179.363 551.365 175.408 550.73 173.693 551.502C174.181 548.95 173.507 544.611 173.195 540.03L175.551 542.632Z" fill="#EEEEEE"/>
<path d="M192.809 530.796L194.391 529.178C196.616 526.903 198.916 524.551 201.571 522.889C203.62 521.607 206.769 520.219 210.138 520.893L210.309 519.723C206.635 518.988 203.244 520.474 201.047 521.849C198.288 523.576 195.942 525.975 193.674 528.294L192.091 529.913L192.809 530.796Z" fill="#EEEEEE"/>
<path d="M192.498 511.147L194.614 511.635C197.589 512.322 200.666 513.033 203.462 514.466C205.62 515.572 208.519 517.612 210.074 521.05L211.016 520.523C209.319 516.773 206.204 514.572 203.89 513.386C200.983 511.896 197.846 511.172 194.813 510.471L192.697 509.983L192.498 511.147Z" fill="#D6D7D8"/>
<path d="M178.221 511.296C178.266 511.608 178.419 511.888 178.647 512.075C178.875 512.263 179.158 512.342 179.435 512.295C179.572 512.272 179.704 512.219 179.822 512.139C179.94 512.058 180.042 511.952 180.123 511.827C180.204 511.701 180.262 511.559 180.294 511.407C180.326 511.256 180.33 511.099 180.308 510.944L179.414 504.801C180.316 503.427 181.291 502.138 182.361 501.052L183.734 510.488C183.779 510.799 183.933 511.08 184.16 511.267C184.388 511.455 184.671 511.534 184.948 511.487C185.086 511.464 185.217 511.411 185.335 511.331C185.453 511.25 185.555 511.144 185.636 511.019C185.718 510.893 185.776 510.751 185.807 510.599C185.839 510.448 185.844 510.29 185.821 510.136L184.264 499.432C185.276 498.731 186.365 498.226 187.547 497.989L189.231 509.563C189.276 509.875 189.43 510.155 189.657 510.342C189.885 510.53 190.169 510.609 190.446 510.562C190.583 510.539 190.714 510.486 190.832 510.406C190.95 510.325 191.053 510.219 191.134 510.094C191.215 509.968 191.273 509.826 191.304 509.674C191.336 509.523 191.341 509.366 191.318 509.211L189.666 497.853C190.921 497.938 192.151 498.313 193.316 498.937L194.71 508.52C194.755 508.832 194.909 509.112 195.136 509.299C195.364 509.487 195.648 509.566 195.925 509.519C196.062 509.496 196.193 509.443 196.311 509.363C196.429 509.282 196.532 509.176 196.613 509.051C196.694 508.925 196.752 508.783 196.783 508.631C196.815 508.48 196.82 508.323 196.797 508.168L195.702 500.641C198.495 503.188 200.624 507.284 201.334 512.161C202.044 517.038 201.189 521.707 199.257 525.075L198.216 517.924C198.171 517.612 198.018 517.332 197.79 517.144C197.562 516.957 197.279 516.878 197.002 516.924C196.865 516.947 196.733 517 196.615 517.081C196.497 517.161 196.395 517.267 196.314 517.393C196.233 517.518 196.175 517.661 196.143 517.812C196.111 517.964 196.107 518.121 196.129 518.275L197.47 527.491C196.537 528.466 195.47 529.213 194.295 529.676L192.737 518.967C192.692 518.655 192.538 518.374 192.311 518.187C192.083 518 191.8 517.92 191.523 517.967C191.385 517.99 191.254 518.043 191.136 518.124C191.018 518.204 190.916 518.31 190.835 518.436C190.753 518.561 190.695 518.704 190.664 518.855C190.632 519.006 190.627 519.164 190.65 519.318L192.229 530.174C191.049 530.284 189.855 530.096 188.667 529.693L187.241 519.892C187.195 519.58 187.042 519.3 186.814 519.112C186.587 518.925 186.303 518.846 186.026 518.892C185.889 518.915 185.758 518.968 185.64 519.049C185.522 519.129 185.419 519.235 185.338 519.361C185.257 519.486 185.199 519.629 185.167 519.78C185.136 519.932 185.131 520.089 185.154 520.243L186.379 528.667C185.057 527.94 183.754 527.008 182.496 525.988L181.727 520.7C181.682 520.388 181.529 520.108 181.301 519.92C181.073 519.733 180.79 519.654 180.513 519.7C180.376 519.723 180.244 519.776 180.126 519.857C180.008 519.937 179.906 520.043 179.825 520.169C179.744 520.294 179.686 520.437 179.654 520.588C179.622 520.74 179.618 520.897 179.64 521.051L180.05 523.868C176.68 520.788 173.808 517.634 172.008 517.098C173.758 515.398 175.513 511.498 177.691 507.65L178.221 511.296Z" fill="#D6D7D8"/>
</g>
<defs>
<linearGradient id="paint0_linear_263_1155" x1="326.113" y1="236.383" x2="428.155" y2="236.383" gradientUnits="userSpaceOnUse">
<stop stop-color="#B9D3FD"/>
<stop offset="1" stop-color="#89B3F4"/>
</linearGradient>
<linearGradient id="paint1_linear_263_1155" x1="359.393" y1="263.101" x2="465.895" y2="263.101" gradientUnits="userSpaceOnUse">
<stop stop-color="#DEEAFE"/>
<stop offset="1" stop-color="#E9F1FE"/>
</linearGradient>
<linearGradient id="paint2_linear_263_1155" x1="285.999" y1="461.05" x2="313.123" y2="461.05" gradientUnits="userSpaceOnUse">
<stop stop-color="#A1C3FC"/>
<stop offset="1" stop-color="#8AB8FD"/>
</linearGradient>
<linearGradient id="paint3_linear_263_1155" x1="232.865" y1="382.048" x2="118.862" y2="409.944" gradientUnits="userSpaceOnUse">
<stop stop-color="#B9D3FD"/>
<stop offset="1" stop-color="#89B3F4"/>
</linearGradient>
<linearGradient id="paint4_linear_263_1155" x1="203.424" y1="422.776" x2="84.4407" y2="451.89" gradientUnits="userSpaceOnUse">
<stop stop-color="#DEEAFE"/>
<stop offset="1" stop-color="#E9F1FE"/>
</linearGradient>
<linearGradient id="paint5_linear_263_1155" x1="261.098" y1="189.845" x2="484.225" y2="189.845" gradientUnits="userSpaceOnUse">
<stop stop-color="#B0CDFC"/>
<stop offset="1" stop-color="#81AEF2"/>
</linearGradient>
<linearGradient id="paint6_linear_263_1155" x1="262.857" y1="221.874" x2="304.238" y2="221.874" gradientUnits="userSpaceOnUse">
<stop stop-color="#EEEEEE"/>
<stop offset="1" stop-color="#D6D7D8"/>
</linearGradient>
<linearGradient id="paint7_linear_263_1155" x1="337.737" y1="221.874" x2="379.118" y2="221.874" gradientUnits="userSpaceOnUse">
<stop stop-color="#EEEEEE"/>
<stop offset="1" stop-color="#D6D7D8"/>
</linearGradient>
<linearGradient id="paint8_linear_263_1155" x1="412.617" y1="221.874" x2="453.998" y2="221.874" gradientUnits="userSpaceOnUse">
<stop stop-color="#EEEEEE"/>
<stop offset="1" stop-color="#D6D7D8"/>
</linearGradient>
<linearGradient id="paint9_linear_263_1155" x1="466.354" y1="430.328" x2="459.753" y2="427.944" gradientUnits="userSpaceOnUse">
<stop stop-color="#FFBEB6"/>
<stop offset="1" stop-color="#F2A19C"/>
</linearGradient>
<linearGradient id="paint10_linear_263_1155" x1="499.403" y1="645.219" x2="438.031" y2="653.961" gradientUnits="userSpaceOnUse">
<stop stop-color="#428DFC"/>
<stop offset="1" stop-color="#1D72D8"/>
</linearGradient>
<linearGradient id="paint11_linear_263_1155" x1="465.939" y1="306.611" x2="489.013" y2="299.042" gradientUnits="userSpaceOnUse">
<stop stop-color="#FFBEB6"/>
<stop offset="1" stop-color="#F2A19C"/>
</linearGradient>
<linearGradient id="paint12_linear_263_1155" x1="449.923" y1="645.219" x2="388.551" y2="653.961" gradientUnits="userSpaceOnUse">
<stop stop-color="#428DFC"/>
<stop offset="1" stop-color="#1D72D8"/>
</linearGradient>
<linearGradient id="paint13_linear_263_1155" x1="456.996" y1="528.82" x2="403.778" y2="528.82" gradientUnits="userSpaceOnUse">
<stop stop-color="#23286B"/>
<stop offset="1" stop-color="#151A4F"/>
</linearGradient>
<linearGradient id="paint14_linear_263_1155" x1="469.744" y1="332.936" x2="435.76" y2="391.343" gradientUnits="userSpaceOnUse">
<stop stop-color="#A1C3FC"/>
<stop offset="1" stop-color="#81AEF2"/>
</linearGradient>
<linearGradient id="paint15_linear_263_1155" x1="517.269" y1="401.737" x2="503.101" y2="401.737" gradientUnits="userSpaceOnUse">
<stop stop-color="#428DFC"/>
<stop offset="1" stop-color="#1D72D8"/>
</linearGradient>
<linearGradient id="paint16_linear_263_1155" x1="327.327" y1="262.568" x2="314.941" y2="262.568" gradientUnits="userSpaceOnUse">
<stop stop-color="#EEEEEE"/>
<stop offset="1" stop-color="#D6D7D8"/>
</linearGradient>
<linearGradient id="paint17_linear_263_1155" x1="443.593" y1="443.453" x2="388.123" y2="443.453" gradientUnits="userSpaceOnUse">
<stop stop-color="#EEEEEE"/>
<stop offset="1" stop-color="#D6D7D8"/>
</linearGradient>
<linearGradient id="paint18_linear_263_1155" x1="451.838" y1="307.458" x2="418.491" y2="321.018" gradientUnits="userSpaceOnUse">
<stop stop-color="#A1C3FC"/>
<stop offset="1" stop-color="#81AEF2"/>
</linearGradient>
<linearGradient id="paint19_linear_263_1155" x1="423.365" y1="397.136" x2="409.009" y2="397.136" gradientUnits="userSpaceOnUse">
<stop stop-color="#A1C3FC"/>
<stop offset="1" stop-color="#81AEF2"/>
</linearGradient>
<linearGradient id="paint20_linear_263_1155" x1="413.978" y1="409.23" x2="404.592" y2="409.23" gradientUnits="userSpaceOnUse">
<stop stop-color="#428DFC"/>
<stop offset="1" stop-color="#1D72D8"/>
</linearGradient>
<linearGradient id="paint21_linear_263_1155" x1="416.993" y1="342.116" x2="384.38" y2="342.116" gradientUnits="userSpaceOnUse">
<stop stop-color="#428DFC"/>
<stop offset="1" stop-color="#1D72D8"/>
</linearGradient>
<linearGradient id="paint22_linear_263_1155" x1="418.672" y1="381.029" x2="410.831" y2="381.029" gradientUnits="userSpaceOnUse">
<stop stop-color="#428DFC"/>
<stop offset="1" stop-color="#1D72D8"/>
</linearGradient>
<linearGradient id="paint23_linear_263_1155" x1="483.911" y1="590.821" x2="522.922" y2="590.821" gradientUnits="userSpaceOnUse">
<stop stop-color="#B9D3FD"/>
<stop offset="1" stop-color="#89B3F4"/>
</linearGradient>
<linearGradient id="paint24_linear_263_1155" x1="508.719" y1="600.564" x2="539.176" y2="600.564" gradientUnits="userSpaceOnUse">
<stop stop-color="#DEEAFE"/>
<stop offset="1" stop-color="#E9F1FE"/>
</linearGradient>
<linearGradient id="paint25_linear_263_1155" x1="501.284" y1="648.893" x2="527.335" y2="648.893" gradientUnits="userSpaceOnUse">
<stop stop-color="#EEEEEE"/>
<stop offset="1" stop-color="#D6D7D8"/>
</linearGradient>
<clipPath id="clip0_263_1155">
<rect width="228.117" height="154.597" fill="white" transform="translate(259.148 175.807)"/>
</clipPath>
<clipPath id="clip1_263_1155">
<rect width="211.763" height="402.047" fill="white" transform="matrix(-1 0 0 1 526.683 254.991)"/>
</clipPath>
<clipPath id="clip2_263_1155">
<rect width="12.8333" height="13.8163" fill="white" transform="matrix(0.97959 0.204271 -0.140128 0.990497 139.352 103.553)"/>
</clipPath>
<clipPath id="clip3_263_1155">
<rect width="6.24425" height="6.24515" fill="white" transform="matrix(0.713587 -0.700657 0.612862 0.790265 124.174 219.833)"/>
</clipPath>
<clipPath id="clip4_263_1155">
<rect width="7.36621" height="7.74007" fill="white" transform="matrix(0.951599 -0.310933 0.225072 0.975008 184.115 143.721)"/>
</clipPath>
<clipPath id="clip5_263_1155">
<rect width="28.4946" height="28.5686" fill="white" transform="matrix(0.786748 -0.617948 0.522542 0.853013 71.0642 179.968)"/>
</clipPath>
<clipPath id="clip6_263_1155">
<rect width="18.5869" height="19.6181" fill="white" transform="matrix(0.957843 -0.290899 0.208394 0.978658 480.722 139.453)"/>
</clipPath>
<clipPath id="clip7_263_1155">
<rect width="10.9027" height="12.2547" fill="white" transform="translate(436.107 65.0439)"/>
</clipPath>
<clipPath id="clip8_263_1155">
<rect width="22.3968" height="22.9751" fill="white" transform="matrix(0.905037 -0.428209 0.329778 0.944904 400.588 94.0991)"/>
</clipPath>
<clipPath id="clip9_263_1155">
<rect width="19.6885" height="20.3294" fill="white" transform="matrix(0.920617 0.393654 -0.297666 0.955492 153.938 170.939)"/>
</clipPath>
<clipPath id="clip10_263_1155">
<rect width="80.0927" height="153.655" fill="white" transform="translate(483.911 513.753)"/>
</clipPath>
<clipPath id="clip11_263_1155">
<rect width="50.8591" height="42.3825" fill="white" transform="matrix(-0.65822 0.752827 0.671115 0.741354 189.12 493.275)"/>
</clipPath>
</defs>
</svg>
